<svg xmlns="http://www.w3.org/2000/svg" xmlns:xlink="http://www.w3.org/1999/xlink" id="Layer_1" x="0" y="0" version="1.1" viewBox="69 282 750 230" xml:space="preserve" style="enable-background:new 69 282 750 230"><switch><g><g transform="matrix( 1, 0, 0, 1, 0,0)"><g id="Layer0_0_FILL"><path style="fill:#595959" d="M121.85,318.5c-2.567,0-5.767,0.35-9.6,1.05c-3.533,0.867-7.117,2.383-10.75,4.55 c-3.533,2.467-6.617,6.05-9.25,10.75c-2.367,4.833-3.65,11.367-3.85,19.6v17.25c0,5.3-0.833,9.467-2.5,12.5 c-1.767,3.067-3.833,5.283-6.2,6.65c-2.267,1.567-4.233,2.5-5.9,2.8c-1.667,0.6-2.6,0.8-2.8,0.6v17.65c0.2,0,1.133,0.2,2.8,0.6 c1.667,0.5,3.633,1.433,5.9,2.8c2.367,1.567,4.433,3.783,6.2,6.65c1.667,3.133,2.5,7.25,2.5,12.35v19.75 c0.2,8.267,1.483,14.75,3.85,19.45c2.633,4.8,5.717,8.433,9.25,10.9c3.633,2.367,7.217,3.983,10.75,4.85 c3.833,0.7,7.033,1.05,9.6,1.05c1.367,0,2.5-0.1,3.4-0.3l1.15-0.3v-15.15h-0.75c-0.467,0-1.15,0-2.05,0 c-1.667,0-3.867-0.4-6.6-1.2c-2.767-0.867-5.283-2.933-7.55-6.2c-2.133-3.033-3.3-7.75-3.5-14.15v-23.85 c0-5.1-0.883-9.367-2.65-12.8c-1.667-3.433-3.533-6.083-5.6-7.95c-2.267-2.067-4.133-3.45-5.6-4.15l-2.65-1.05v-0.55l2.65-0.9 c1.467-0.9,3.333-2.367,5.6-4.4c2.067-1.867,3.933-4.533,5.6-8c1.767-3.433,2.65-7.65,2.65-12.65v-21.2 c0.2-6.5,1.367-11.317,3.5-14.45c2.267-3.033,4.783-5,7.55-5.9c2.733-0.867,4.933-1.3,6.6-1.3c0.9,0,1.583,0,2.05,0h0.75V318.8 h-1.15C124.35,318.6,123.217,318.5,121.85,318.5 M313.25,320c1.967-3.633,4.033-7.217,6.2-10.75c0.2-0.3,0.25-0.6,0.15-0.9 c-0.1-0.4-0.25-0.7-0.45-0.9L319,307.3c-5.1-4.2-10.317-7.833-15.65-10.9c-3.9-2.333-7.817-4.3-11.75-5.9 c-15.333-5.867-31.75-7.033-49.25-3.5c-0.267,0.1-0.45,0.25-0.55,0.45c-0.3,0.067-0.45,0.25-0.45,0.55 c-2.533,6.367-4.767,13.033-6.7,20c-1,3.567-1.917,7.217-2.75,10.95h0.15L230,327.2c-0.1,0.1-0.15,0.25-0.15,0.45 c-2.067,9.133-3.833,18.517-5.3,28.15c-0.4,2.733-0.8,5.483-1.2,8.25c-0.267,1.967-0.5,3.983-0.7,6.05c-0.4,0-0.75,0-1.05,0 h-0.3c-0.1,0-0.2,0.05-0.3,0.15c-1.567,0.267-3.183,0.4-4.85,0.4H216c-11.8,1.5-17.783,4.25-17.95,8.25 c-0.7,4.233,4.7,8.067,16.2,11.5c0.667,0.2,1.45,0.4,2.35,0.6l0.9,0.3c0.967,0.2,2.083,0.45,3.35,0.75 c-0.3,3.533-0.533,7.117-0.7,10.75c0,0.967-0.05,2-0.15,3.1c-1.5,0.567-2.833,1.65-4,3.25c-0.8,0.767-1.433,1.6-1.9,2.5 l-4.45-1.5l-1.9,5.6l4.4,1.5c-0.1,0.567-0.15,1.2-0.15,1.9c-0.167,3.733,0.817,7.017,2.95,9.85c1.4,1.967,3.033,3.3,4.9,4 c0,1.767,0.05,3.583,0.15,5.45c-0.3-0.1-0.55-0.15-0.75-0.15c-0.9-0.2-1.683-0.3-2.35-0.3c-0.2,0-0.35,0-0.45,0 c-4.733-0.1-8.367,1.417-10.9,4.55h-0.15c-0.9,1.2-1.733,2.633-2.5,4.3V447c-0.3,0.967-0.9,2.383-1.8,4.25 c-1.367,3.067-2.983,5.183-4.85,6.35c-0.1,0-0.15,0.05-0.15,0.15c-1.467,0.5-2.833,0.8-4.1,0.9h-0.15 c-2.367,0.167-4.283-0.633-5.75-2.4c-1.967-2.333-3.45-5.567-4.45-9.7c-0.967-4.233-0.867-7.483,0.3-9.75 c1.4-2.633,2.833-4.15,4.3-4.55c1.267-0.3,2.733,0.483,4.4,2.35l0.15,0.15c0.9,0.9,1.35,2.617,1.35,5.15 c0,1.5-0.2,2.933-0.6,4.3c-0.2,0.4-0.2,0.783,0,1.15c0.2,0.3,0.5,0.55,0.9,0.75c0.367,0.1,0.75,0.05,1.15-0.15 c0.3-0.2,0.55-0.483,0.75-0.85c0.5-1.7,0.75-3.433,0.75-5.2c0-3.633-0.75-6.033-2.25-7.2l-0.15-0.15 c-2.533-2.733-4.933-3.817-7.2-3.25c-2.267,0.4-4.333,2.467-6.2,6.2c-1.567,2.733-1.717,6.667-0.45,11.8 c1.1,4.6,2.783,8.233,5.05,10.9c2.133,2.533,4.883,3.667,8.25,3.4c1.667-0.1,3.433-0.55,5.3-1.35h0.15 c2.333-1.467,4.383-4.067,6.15-7.8c0.9-1.867,1.5-3.3,1.8-4.3c0.667-1.467,1.4-2.683,2.2-3.65v-0.15 c2.067-2.367,4.967-3.5,8.7-3.4c0.1,0,0.25,0,0.45,0c0.567,0,1.2,0.1,1.9,0.3c0.1,0,0.2,0,0.3,0c0.1,0,0.2,0.05,0.3,0.15 c0.1,0,0.2,0,0.3,0h0.45c0.267,6.767,0.7,13.583,1.3,20.45l-10.6-1.15c-0.4,0-0.7,0.1-0.9,0.3c-0.4,0.2-0.6,0.483-0.6,0.85 c-0.167,0.3-0.167,0.65,0,1.05l4.6,8.85L188,500.2l-20.9-60.85c-0.1-0.1-0.15-0.2-0.15-0.3l-4.3-13.15 c-0.1-0.167-0.25-0.35-0.45-0.55c-0.167-0.2-0.35-0.3-0.55-0.3c-5.5-1.767-9.283-0.3-11.35,4.4c-0.2,0.3-0.2,0.65,0,1.05 l4.55,13.55c0,0.1,0.05,0.2,0.15,0.3l19.1,54.7l0.05,0.1c1.1,0.367,2.233,0.667,3.4,0.9c0.367,0.067,0.75,0.133,1.15,0.2 c1,0.167,2.05,0.283,3.15,0.35c0.167,0,0.35,0,0.55,0l-21.65-60.1c0.967-0.4,2.2-0.25,3.7,0.45l20.6,59.65h6.65l21.8-23.7 l-9.45,23.7h40.1v-7.95l15.15,3.4c0.3,0.1,0.6,0.1,0.9,0c0.3-0.2,0.55-0.4,0.75-0.6c0.1-0.3,0.15-0.583,0.15-0.85 c-0.1-6.9,0-13.933,0.3-21.1c0-0.4-0.1-0.683-0.3-0.85c-0.2-0.3-0.45-0.5-0.75-0.6c-0.3-0.2-0.6-0.2-0.9,0l-15.75,5.15v-29.75 c13.467-7.167,22.75-8.4,27.85-3.7c0.8,1.067,1.633,2.3,2.5,3.7c0,0.1,0.05,0.15,0.15,0.15c0.3,0.867,0.883,2.233,1.75,4.1h0.15 c0.2,0.5,0.45,0.95,0.75,1.35c-0.2,4.8-0.3,9.6-0.3,14.4c0,0.4,0.15,0.75,0.45,1.05s0.65,0.45,1.05,0.45h10.3l-8.85,11.35 c-0.2,0.3-0.3,0.583-0.3,0.85c0,0.4,0.1,0.75,0.3,1.05l6.35,7.65c0.2-0.3,0.4-0.583,0.6-0.85c0.167-0.3,0.35-0.6,0.55-0.9 l0.6-0.9l-0.05-0.05l-4.95-6l9.85-12.8c0.2-0.3,0.3-0.65,0.3-1.05c0-0.367-0.15-0.65-0.45-0.85c-0.267-0.3-0.6-0.45-1-0.45 h-11.8c0-3.133,0.05-6.283,0.15-9.45c1.067,1.1,2.2,1.883,3.4,2.35c1.767,0.9,3.733,1.3,5.9,1.2h0.15 c3.233,0.2,6.117-0.983,8.65-3.55h0.15c2.367-2.733,4.233-6.517,5.6-11.35v-0.1c1.1-5.033,0.767-8.917-1-11.65 c-2.067-3.633-4.283-5.6-6.65-5.9c-2.467-0.6-5.067,0.533-7.8,3.4c-1.567,1.467-2.35,4.017-2.35,7.65c0,1.667,0.15,3.333,0.45,5 c0.1,0.4,0.333,0.7,0.7,0.9c0.3,0.3,0.65,0.4,1.05,0.3c0.4-0.1,0.7-0.3,0.9-0.6c0.3-0.4,0.4-0.8,0.3-1.2 c-0.3-1.467-0.45-2.933-0.45-4.4c0-2.667,0.483-4.533,1.45-5.6c1.867-1.867,3.583-2.7,5.15-2.5c1.667,0.4,3.25,1.867,4.75,4.4 c1.267,2.367,1.45,5.567,0.55,9.6h0.15c-1.267,4.2-2.933,7.533-5,10v0.15c-1.967,1.867-4.167,2.7-6.6,2.5h-0.15 c-1.667,0.1-3.2-0.2-4.6-0.9h-0.15c-1.567-0.767-3.033-2.083-4.4-3.95c0.7-16.1,2.417-31.967,5.15-47.6 c0.1-0.6,0.2-1.133,0.3-1.6c0.3-1.667,0.65-3.25,1.05-4.75v-0.15c2.133,0,4.05-0.183,5.75-0.55 c11.567-1.1,17.45-3.717,17.65-7.85v-0.1c0.8-3.933-4.55-7.817-16.05-11.65l-0.15-0.15c-0.6-0.1-1.283-0.25-2.05-0.45 c-0.2-0.1-0.4-0.15-0.6-0.15c0.8-2.933,1.583-5.733,2.35-8.4l0.15-0.15c0.5-1.467,0.95-2.833,1.35-4.1 c1.967-6.7,4.167-13.083,6.6-19.15c0.033-0.067,0.067-0.133,0.1-0.2c2.933-7.7,6.2-14.967,9.8-21.8L313.25,320 M301.9,298.9 h0.15c-4.1,9.167-7.9,18.417-11.4,27.75c-4.067,10.767-7.733,21.667-11,32.7c-3.533-1.7-7.167-3.033-10.9-4 c3.667-13.9,8.033-27.567,13.1-41c2.667-7.1,5.517-14.117,8.55-21.05h0.15C294.383,294.8,298.167,296.667,301.9,298.9 M255.2,370.8c-0.4,0-0.75,0-1.05,0c-7.9-0.283-15.8-0.567-23.7-0.85c-1.667,0-3.283,0.05-4.85,0.15 c0.167-1.867,0.4-3.733,0.7-5.6c0.3-2.367,0.65-4.733,1.05-7.1c14.333-3.233,27.833-2.983,40.5,0.75 c3.633,0.967,7.217,2.3,10.75,4c2.167,1.067,4.333,2.183,6.5,3.35c1.567,1,3.283,2.083,5.15,3.25 c-0.767,2.467-1.5,5.017-2.2,7.65c-0.5-0.1-0.983-0.2-1.45-0.3c-0.05,0-0.1,0-0.15,0c-0.1,0-0.2,0-0.3,0 C277.117,373.767,266.8,372,255.2,370.8 M283.05,390.4c0.567,0.2,1.15,0.4,1.75,0.6c-0.5,1.767-0.933,3.583-1.3,5.45 c0,0.1,0,0.25,0,0.45c-0.1,0.3-0.15,0.65-0.15,1.05c-0.4,1.467-0.75,3.033-1.05,4.7c-0.1,0.5-0.2,1.033-0.3,1.6 c-2.467,14.167-4.083,28.467-4.85,42.9c-0.2-0.3-0.35-0.6-0.45-0.9v-0.15c-0.967-1.567-1.9-2.933-2.8-4.1 c0-0.1-0.05-0.15-0.15-0.15c-6-6.4-16.85-5.233-32.55,3.5c-1.067,0.5-2.4,0.7-4,0.6l3.4-15.9v-0.3l8.7-45.25 c0.6,0,1.183,0,1.75,0c0.4,0.1,0.8,0.15,1.2,0.15h0.15c0.1,0,0.2,0,0.3,0c0.2,0,0.45,0,0.75,0 C263.317,386.567,273.183,388.483,283.05,390.4 M235,400.85c-0.5-0.167-0.833-0.55-1-1.15c-1.5-2.067-2.983-3.25-4.45-3.55h-0.3 c-1.267,0-2.583,0.4-3.95,1.2c-0.6,0.2-1.1,0.25-1.5,0.15c-0.567-0.2-0.95-0.5-1.15-0.9c-0.2-0.5-0.2-1.033,0-1.6 c0.1-0.4,0.333-0.7,0.7-0.9c2.167-1,4.133-1.5,5.9-1.5h0.15c0.1,0,0.25,0,0.45,0c2.833,0.2,5.183,1.983,7.05,5.35 c0.4,0.367,0.45,0.85,0.15,1.45c-0.1,0.3-0.333,0.7-0.7,1.2C235.85,400.867,235.4,400.95,235,400.85 M235.75,447.6 c-0.4,0.1-0.8,0.05-1.2-0.15c-2.167-1.3-4.267-2.383-6.3-3.25c-1.4-0.7-2.633-1.2-3.7-1.5c-0.5-0.2-0.9-0.333-1.2-0.4h-0.15 c-0.467-0.2-0.9-0.35-1.3-0.45c-0.4-0.1-0.8-0.2-1.2-0.3h-0.15c-0.1-0.1-0.2-0.15-0.3-0.15l-0.1-2.95h0.1c0.3,0,0.7,0.1,1.2,0.3 c0.4,0.1,0.8,0.2,1.2,0.3l-0.15-0.15c0.567,0.1,1.15,0.3,1.75,0.6c0.367,0.033,0.817,0.167,1.35,0.4h-0.15 c1.267,0.4,2.633,0.95,4.1,1.65h-0.15c2.067,0.867,4.283,2,6.65,3.4c0.3,0.167,0.55,0.45,0.75,0.85 c0.067,0.3,0.017,0.65-0.15,1.05C236.35,447.15,236.05,447.4,235.75,447.6 M224.25,407.8c2.367,0,4.383,1.033,6.05,3.1 c1.667,2.267,2.45,5.017,2.35,8.25c-0.2,3.033-1.233,5.733-3.1,8.1h0.15c-1.967,2.167-4.183,3.25-6.65,3.25 c-1.167,0-2.233-0.3-3.2-0.9c-1-0.6-1.833-1.383-2.5-2.35c-1.767-2.267-2.567-4.917-2.4-7.95v-0.15c0-1.267,0.25-2.5,0.75-3.7 c0-0.1,0.05-0.15,0.15-0.15c0.4-1.567,1.183-2.983,2.35-4.25c0.5-0.7,1.05-1.25,1.65-1.65 C221.217,408.333,222.683,407.8,224.25,407.8 M153.25,430.2c1.367-2.567,3.617-3.45,6.75-2.65l3.25,9.85 c-1.367-0.3-2.55-0.2-3.55,0.3h-0.15c-1.167,0.5-2.133,1.283-2.9,2.35L153.25,430.2 M227.35,474.25h0.6l13.7,6.05 c0.3,0.1,0.633,0.15,1,0.15c0.3,0.1,0.6,0.1,0.9,0l14.9-5c-0.3,5.867-0.4,11.65-0.3,17.35l-15.2-3.5 c-0.4-0.1-0.733-0.017-1,0.25c-0.1,0-0.2,0.05-0.3,0.15l-14.3,4.45V474.25 M253.3,428.85c4-7,6.267-12.967,6.8-17.9 c0.033-0.433-0.067-0.8-0.3-1.1c-0.267-0.333-0.6-0.533-1-0.6c-0.433-0.033-0.8,0.083-1.1,0.35c-0.333,0.233-0.533,0.567-0.6,1 c-0.6,5.1-3.167,11.433-7.7,19c-0.2,0.3-0.267,0.633-0.2,1c0.033,0.367,0.2,0.667,0.5,0.9c0.267,0.233,0.583,0.35,0.95,0.35 h11.45c0.4,0,0.75-0.15,1.05-0.45s0.45-0.65,0.45-1.05c0-0.4-0.15-0.75-0.45-1.05s-0.65-0.45-1.05-0.45H253.3 M255.15,396.3 c-0.367,0.167-0.617,0.45-0.75,0.85c-0.167,0.4-0.15,0.783,0.05,1.15c0.167,0.367,0.45,0.633,0.85,0.8 c0.4,0.133,0.783,0.1,1.15-0.1c3.933-1.9,7.15-1.3,9.65,1.8c0.233,0.3,0.567,0.483,1,0.55c0.4,0.033,0.767-0.067,1.1-0.3 c0.3-0.267,0.483-0.6,0.55-1c0.033-0.433-0.067-0.8-0.3-1.1C265.05,394.55,260.617,393.667,255.15,396.3 M335.9,319.55 c-3.633-0.7-6.817-1.05-9.55-1.05c-1.367,0-2.5,0.1-3.4,0.3h-1.15v15.05h0.7c0.5,0,1.2,0,2.1,0c1.867,0,4.167,0.433,6.9,1.3 c2.767,0.9,5.267,2.867,7.5,5.9c1.967,3.133,3.05,7.95,3.25,14.45v21.2c0.2,5,1.083,9.217,2.65,12.65 c1.667,3.467,3.633,6.133,5.9,8c2.067,2.033,3.933,3.5,5.6,4.4c1.567,0.6,2.4,0.9,2.5,0.9v0.55c-0.1,0-0.933,0.35-2.5,1.05 c-1.667,0.7-3.533,2.083-5.6,4.15c-2.267,1.867-4.233,4.517-5.9,7.95c-1.567,3.433-2.45,7.7-2.65,12.8V453 c-0.2,6.4-1.283,11.117-3.25,14.15c-2.233,3.267-4.733,5.333-7.5,6.2c-2.733,0.8-5.033,1.2-6.9,1.2c-0.9,0-1.6,0-2.1,0h-0.7 v15.15l1.15,0.3c0.9,0.2,2.033,0.3,3.4,0.3c2.733,0,5.917-0.35,9.55-1.05c3.733-0.867,7.417-2.483,11.05-4.85 c3.567-2.467,6.567-6.1,9-10.9c2.567-4.7,3.85-11.183,3.85-19.45V434.3c0-5.1,0.933-9.217,2.8-12.35 c1.667-2.867,3.633-5.083,5.9-6.65c2.233-1.367,4.283-2.3,6.15-2.8l2.55-0.6v-17.65c0,0.2-0.85,0-2.55-0.6 c-1.867-0.3-3.917-1.233-6.15-2.8c-2.267-1.367-4.233-3.583-5.9-6.65c-1.867-3.033-2.8-7.2-2.8-12.5v-17.25 c0-8.233-1.283-14.767-3.85-19.6c-2.433-4.7-5.433-8.283-9-10.75C343.317,321.933,339.633,320.417,335.9,319.55 M462.9,399.55 c0.6,0.533,0.9,1.35,0.9,2.45v6.55h17.95v-16.4c0-3.567-0.817-6.167-2.45-7.8c-1.633-1.7-4.267-2.55-7.9-2.55h-61.55v16.85h9.85 v91.05h19.9v-43.6h34.5v-16.85h-34.5v-30.6h20.85C461.517,398.65,462.333,398.95,462.9,399.55 M432.5,327.9 c0-1.4-0.333-2.417-1-3.05c-0.633-0.633-1.633-0.95-3-0.95h-15.3v6.55h10.2c0.433,0,0.767,0.117,1,0.35s0.35,0.55,0.35,0.95 v21.5c-0.033,1.533-0.3,2.75-0.8,3.65c-0.5,0.933-1.167,1.617-2,2.05c-0.833,0.4-1.733,0.6-2.7,0.6 c-0.933,0.033-1.833-0.167-2.7-0.6c-0.833-0.4-1.5-1.1-2-2.1c-0.533-0.967-0.817-2.283-0.85-3.95v-1.75h-7.75v2.45 c0.033,3.033,0.683,5.533,1.95,7.5c1.3,1.933,2.933,3.383,4.9,4.35c2.033,0.933,4.167,1.4,6.4,1.4s4.35-0.467,6.35-1.4 c2.033-0.933,3.7-2.367,5-4.3c1.267-1.933,1.917-4.45,1.95-7.55V327.9 M457.7,323.6c-1.433-0.3-2.8-0.45-4.1-0.45 c-2.733,0.033-5.15,0.55-7.25,1.55c-2.1,1.033-3.767,2.45-5,4.25c-1.2,1.767-1.8,3.8-1.8,6.1c0.033,2.167,0.517,4,1.45,5.5 c0.967,1.533,2.183,2.817,3.65,3.85c1.533,1.067,3.133,1.983,4.8,2.75c1.7,0.8,3.3,1.55,4.8,2.25 c1.5,0.733,2.717,1.517,3.65,2.35c0.967,0.867,1.467,1.883,1.5,3.05c-0.033,1.1-0.333,2.017-0.9,2.75 c-0.533,0.733-1.267,1.3-2.2,1.7c-0.9,0.367-1.9,0.55-3,0.55c-1.467-0.033-2.817-0.3-4.05-0.8c-1.267-0.467-2.35-1.033-3.25-1.7 c-0.933-0.667-1.65-1.233-2.15-1.7c-0.5-0.5-0.75-0.767-0.75-0.8l-4.4,5.5l0.95,1c0.633,0.633,1.567,1.383,2.8,2.25 c1.233,0.833,2.75,1.583,4.55,2.25c1.8,0.633,3.867,0.983,6.2,1.05c2.967-0.067,5.5-0.65,7.6-1.75 c2.067-1.133,3.667-2.633,4.8-4.5c1.067-1.867,1.617-3.933,1.65-6.2c-0.033-2.3-0.533-4.233-1.5-5.8 c-0.933-1.533-2.15-2.817-3.65-3.85s-3.1-1.917-4.8-2.65c-1.667-0.767-3.267-1.483-4.8-2.15c-1.5-0.633-2.717-1.367-3.65-2.2 c-0.933-0.8-1.433-1.8-1.5-3c0.067-1.367,0.65-2.45,1.75-3.25c1.167-0.833,2.65-1.25,4.45-1.25c0.967,0,1.867,0.133,2.7,0.4 c0.867,0.267,1.567,0.633,2.1,1.1c0.533,0.533,0.8,1.117,0.8,1.75v1.9h7.05v-3.9c-0.033-1.533-0.467-2.817-1.3-3.85 c-0.8-1.067-1.85-1.933-3.15-2.6C460.483,324.417,459.133,323.933,457.7,323.6 M504.25,326.05c-3.267-1.9-7-2.867-11.2-2.9 c-4.167,0.033-7.883,1-11.15,2.9c-3.3,1.9-5.883,4.467-7.75,7.7c-1.9,3.233-2.883,6.883-2.95,10.95 c0.067,4.167,1.05,7.917,2.95,11.25c1.867,3.333,4.45,5.967,7.75,7.9c3.267,1.933,6.983,2.933,11.15,3 c4.2-0.067,7.933-1.067,11.2-3c3.267-1.933,5.85-4.567,7.75-7.9c1.9-3.333,2.867-7.083,2.9-11.25 c-0.033-4.067-1-7.717-2.9-10.95C510.1,330.517,507.517,327.95,504.25,326.05 M504.95,337.4c1.2,2.133,1.817,4.567,1.85,7.3 c-0.033,2.833-0.65,5.367-1.85,7.6c-1.233,2.233-2.883,4-4.95,5.3c-2.067,1.3-4.383,1.95-6.95,1.95s-4.883-0.65-6.95-1.95 c-2.067-1.3-3.7-3.067-4.9-5.3c-1.233-2.233-1.867-4.767-1.9-7.6c0.033-2.733,0.667-5.167,1.9-7.3 c1.2-2.133,2.833-3.817,4.9-5.05c2.067-1.267,4.383-1.917,6.95-1.95c2.567,0.033,4.883,0.683,6.95,1.95 C502.067,333.583,503.717,335.267,504.95,337.4 M558.4,473.45c-1.067,0-1.883-0.3-2.45-0.9c-0.567-0.533-0.85-1.35-0.85-2.45 v-28.85c0.033-5.833-0.933-11.083-2.9-15.75c-2.033-4.6-5.5-8.25-10.4-10.95c-4.9-2.733-11.633-4.117-20.2-4.15 c-2.067,0-4.65,0.15-7.75,0.45c-3.167,0.333-6.317,1.05-9.45,2.15c-3.1,1.033-5.717,2.633-7.85,4.8 c-2.133,2.133-3.25,4.983-3.35,8.55v8.25h17.95v-4.1c0.067-1.433,0.717-2.517,1.95-3.25c1.167-0.767,2.55-1.3,4.15-1.6 c1.567-0.233,2.967-0.35,4.2-0.35c4.967-0.033,8.617,1.1,10.95,3.4c2.267,2.4,3.4,6.333,3.4,11.8v0.6h-2.45 c-2.567,0-5.783,0.133-9.65,0.4c-3.8,0.267-7.783,0.883-11.95,1.85c-4.2,0.933-8.15,2.367-11.85,4.3 c-3.667,1.933-6.667,4.5-9,7.7c-2.267,3.167-3.45,7.167-3.55,12c0.033,5.2,1.3,9.583,3.8,13.15c2.4,3.6,5.6,6.35,9.6,8.25 c4.033,1.867,8.367,2.8,13,2.8c4.367-0.1,8.05-0.817,11.05-2.15c2.967-1.333,5.367-2.883,7.2-4.65 c1.833-1.8,3.15-3.383,3.95-4.75c0.833-1.333,1.233-2.033,1.2-2.1h0.25l-0.05,0.9c0,0.6-0.017,1.383-0.05,2.35 c0,2.4,0.767,4.417,2.3,6.05c1.533,1.633,4.05,2.467,7.55,2.5h17.35v-16.25H558.4 M506.8,466.5c0.033-2.7,0.917-4.867,2.65-6.5 c1.7-1.633,3.883-2.867,6.55-3.7c2.667-0.767,5.483-1.3,8.45-1.6c2.967-0.267,5.733-0.4,8.3-0.4h3.35v1.85 c0,3.233-0.767,6.383-2.3,9.45c-1.5,3.1-3.55,5.667-6.15,7.7c-2.633,2.067-5.683,3.133-9.15,3.2c-3.967-0.1-6.9-1.117-8.8-3.05 C507.767,471.483,506.8,469.167,506.8,466.5 M598.7,390.65c0-3.5-0.833-5.867-2.5-7.1c-1.633-1.233-4.233-1.817-7.8-1.75H570 v16.4h6.1c1.067,0,1.883,0.283,2.45,0.85c0.567,0.533,0.85,1.367,0.85,2.5v88.15h19.3v-33.9h4.25 c1.267-0.067,2.567,0.083,3.9,0.45c1.333,0.3,2.433,1.117,3.3,2.45l12.9,24.3c1.367,2.733,2.95,4.55,4.75,5.45 c1.733,0.867,4.183,1.283,7.35,1.25h14.3v-16.25h-5.2c-1.767,0.067-3.117-0.133-4.05-0.6c-0.967-0.4-1.733-1.167-2.3-2.3 l-8.75-16.75c-1.433-2.433-2.7-4.067-3.8-4.9c-1.1-0.833-1.667-1.2-1.7-1.1v-0.4c0,0.067,0.533-0.333,1.6-1.2 c1.067-0.833,2.45-2.433,4.15-4.8l19.6-29.15h-21.45l-15.8,24.4c-0.867,1.2-1.967,2-3.3,2.4c-1.4,0.367-2.717,0.533-3.95,0.5 h-5.8V390.65 M556.95,330.8c0.2-0.233,0.517-0.35,0.95-0.35h2.55v-6.55h-7.6c-1.4,0-2.417,0.317-3.05,0.95 c-0.667,0.633-1,1.65-1,3.05v19.35c0,0.833,0.05,1.7,0.15,2.6c0.033,0.933,0.1,1.717,0.2,2.35c0.033,0.633,0.05,0.967,0.05,1 h-0.1c0-0.033-0.167-0.367-0.5-1c-0.367-0.633-0.817-1.417-1.35-2.35c-0.533-0.9-1.083-1.767-1.65-2.6l-16-23.35h-7v34.3 c0,0.433-0.117,0.75-0.35,0.95c-0.2,0.233-0.517,0.35-0.95,0.35h-2.55v6.6h7.6c1.4,0,2.417-0.317,3.05-0.95 c0.667-0.633,1-1.667,1-3.1V342.8c0-0.833-0.05-1.717-0.15-2.65c-0.067-0.9-0.133-1.667-0.2-2.3s-0.1-0.967-0.1-1h0.15 c0,0.033,0.167,0.367,0.5,1c0.367,0.667,0.817,1.45,1.35,2.35c0.533,0.9,1.083,1.767,1.65,2.6l16.05,23.3h6.95v-34.35 C556.6,331.35,556.717,331.033,556.95,330.8 M603.15,325.05c-1.267-0.633-2.617-1.117-4.05-1.45c-1.433-0.3-2.8-0.45-4.1-0.45 c-2.733,0.033-5.15,0.55-7.25,1.55c-2.1,1.033-3.767,2.45-5,4.25c-1.2,1.767-1.8,3.8-1.8,6.1c0.033,2.167,0.517,4,1.45,5.5 c0.967,1.533,2.183,2.817,3.65,3.85c1.533,1.067,3.133,1.983,4.8,2.75c1.7,0.8,3.3,1.55,4.8,2.25 c1.5,0.733,2.717,1.517,3.65,2.35c0.967,0.867,1.467,1.883,1.5,3.05c-0.033,1.1-0.333,2.017-0.9,2.75 c-0.533,0.733-1.267,1.3-2.2,1.7c-0.9,0.367-1.9,0.55-3,0.55c-1.467-0.033-2.817-0.3-4.05-0.8c-1.267-0.467-2.35-1.033-3.25-1.7 c-0.933-0.667-1.65-1.233-2.15-1.7c-0.5-0.5-0.75-0.767-0.75-0.8l-4.4,5.5l0.95,1c0.633,0.633,1.567,1.383,2.8,2.25 c1.233,0.833,2.75,1.583,4.55,2.25c1.8,0.633,3.867,0.983,6.2,1.05c2.967-0.067,5.5-0.65,7.6-1.75 c2.067-1.133,3.667-2.633,4.8-4.5c1.067-1.867,1.617-3.933,1.65-6.2c-0.033-2.3-0.533-4.233-1.5-5.8 c-0.933-1.533-2.15-2.817-3.65-3.85s-3.1-1.917-4.8-2.65c-1.667-0.767-3.267-1.483-4.8-2.15c-1.5-0.633-2.717-1.367-3.65-2.2 c-0.933-0.8-1.433-1.8-1.5-3c0.067-1.367,0.65-2.45,1.75-3.25c1.167-0.833,2.65-1.25,4.45-1.25c0.967,0,1.867,0.133,2.7,0.4 c0.867,0.267,1.567,0.633,2.1,1.1c0.533,0.533,0.8,1.117,0.8,1.75v1.9h7.05v-3.9c-0.033-1.533-0.467-2.817-1.3-3.85 C605.5,326.583,604.45,325.717,603.15,325.05 M705.55,337c-2-1.267-4.45-1.917-7.35-1.95c-3.067,0.033-5.733,0.717-8,2.05 c-2.3,1.333-4.1,3.183-5.4,5.55c-1.3,2.4-1.967,5.167-2,8.3c0.033,2.933,0.7,5.583,2,7.95c1.3,2.367,3.183,4.267,5.65,5.7 c2.4,1.433,5.283,2.183,8.65,2.25c1.9-0.033,3.6-0.283,5.1-0.75c1.5-0.433,2.767-0.95,3.8-1.55c1.067-0.6,1.883-1.133,2.45-1.6 c0.567-0.433,0.85-0.667,0.85-0.7l-3.15-5.25c0,0.033-0.367,0.333-1.1,0.9c-0.733,0.533-1.75,1.083-3.05,1.65 c-1.267,0.533-2.717,0.817-4.35,0.85c-1.533,0-2.95-0.3-4.25-0.9c-1.3-0.633-2.383-1.55-3.25-2.75 c-0.867-1.233-1.4-2.733-1.6-4.5h20.95c0-0.033,0-0.2,0-0.5c0.033-0.333,0.067-0.733,0.1-1.2c0.033-0.433,0.05-0.8,0.05-1.1 c0-2.7-0.517-5.133-1.55-7.3C709.067,339.983,707.55,338.267,705.55,337 M698.2,340.9c1.6,0,2.933,0.567,4,1.7 c1.067,1.1,1.65,2.567,1.75,4.4h-13.2c0.433-1.9,1.3-3.4,2.6-4.5C694.65,341.433,696.267,340.9,698.2,340.9 M640.6,345.45v-3.55 c0-1.3-0.383-2.383-1.15-3.25c-0.767-0.9-1.733-1.617-2.9-2.15c-1.133-0.533-2.317-0.9-3.55-1.1 c-1.233-0.233-2.367-0.35-3.4-0.35c-3.467,0.033-6.433,0.767-8.9,2.2c-2.5,1.467-4.4,3.383-5.7,5.75c-1.3,2.4-1.967,5.05-2,7.95 c0.033,2.967,0.717,5.65,2.05,8.05c1.333,2.367,3.233,4.267,5.7,5.7c2.433,1.367,5.317,2.083,8.65,2.15 c2.1-0.067,3.933-0.35,5.5-0.85c1.6-0.567,2.933-1.2,4-1.9c1.1-0.733,1.933-1.367,2.5-1.9c0.533-0.533,0.8-0.817,0.8-0.85 l-3.15-5.2l-0.65,0.65c-0.433,0.4-1.067,0.85-1.9,1.35c-0.8,0.567-1.75,1.05-2.85,1.45c-1.067,0.4-2.25,0.617-3.55,0.65 c-1.667,0-3.217-0.35-4.65-1.05c-1.4-0.7-2.55-1.75-3.45-3.15c-0.9-1.367-1.35-3.083-1.35-5.15c0-1.867,0.383-3.5,1.15-4.9 c0.767-1.433,1.817-2.55,3.15-3.35c1.367-0.8,2.917-1.217,4.65-1.25c0.633,0,1.283,0.083,1.95,0.25 c0.667,0.167,1.233,0.433,1.7,0.8c0.467,0.333,0.7,0.783,0.7,1.35v1.65H640.6 M655.1,327.85c0-1.367-0.333-2.367-1-3 c-0.633-0.633-1.65-0.95-3.05-0.95h-7.2v6.4h2.4c0.433,0,0.75,0.1,0.95,0.3c0.233,0.233,0.35,0.567,0.35,1v34.5h7.55v-13.9 c0-0.733,0.033-1.417,0.1-2.05c0.067-0.667,0.183-1.3,0.35-1.9c0.6-1.867,1.617-3.367,3.05-4.5c1.433-1.133,3.167-1.733,5.2-1.8 c1.867,0.033,3.133,0.617,3.8,1.75c0.7,1.1,1.033,2.583,1,4.45v13.9c0,1.433,0.317,2.467,0.95,3.1 c0.633,0.633,1.65,0.95,3.05,0.95h7.2v-6.35h-2.4c-0.433,0-0.75-0.117-0.95-0.35c-0.233-0.233-0.35-0.55-0.35-0.95V346.6 c-0.033-4-0.95-6.933-2.75-8.8c-1.833-1.833-4.433-2.75-7.8-2.75c-1.767,0.033-3.35,0.333-4.75,0.9 c-1.367,0.6-2.533,1.35-3.5,2.25c-0.967,0.933-1.7,1.883-2.2,2.85H655l0.05-0.7c0.033-0.467,0.05-1.083,0.05-1.85V327.85 M719.85,466.5c0,0.1-0.95,0.833-2.85,2.2c-1.867,1.433-4.433,2.85-7.7,4.25c-3.267,1.367-6.967,2.1-11.1,2.2 c-3.967,0-7.617-0.783-10.95-2.35c-3.3-1.6-6.067-3.933-8.3-7c-2.167-3.1-3.517-6.933-4.05-11.5h53.45 c0-0.033,0.033-0.483,0.1-1.35c0.1-0.833,0.167-1.817,0.2-2.95c0.1-1.067,0.15-2,0.15-2.8c0-6.933-1.333-13.167-4-18.7 c-2.6-5.5-6.45-9.883-11.55-13.15c-5.1-3.2-11.367-4.85-18.8-4.95c-7.8,0.033-14.617,1.767-20.45,5.2 c-5.9,3.467-10.5,8.217-13.8,14.25c-3.333,6.067-5.017,13.1-5.05,21.1c0.033,7.467,1.733,14.25,5.1,20.35 c3.333,6.1,8.117,10.967,14.35,14.6c6.167,3.667,13.55,5.55,22.15,5.65c4.867-0.033,9.2-0.65,13-1.85 c3.867-1.133,7.133-2.467,9.8-4c2.733-1.533,4.817-2.867,6.25-4c1.367-1.133,2.083-1.75,2.15-1.85L719.85,466.5 M682.1,429.45 c3.3-2.7,7.417-4.083,12.35-4.15c4.067,0.067,7.467,1.533,10.2,4.4c2.7,2.8,4.183,6.55,4.45,11.25h-33.6 C676.567,436.05,678.767,432.217,682.1,429.45 M766.05,421.65c0-3.267-0.867-5.667-2.6-7.2c-1.733-1.467-4.3-2.2-7.7-2.2H738.1 v16.4h6.05c1.1,0,1.917,0.267,2.45,0.8c0.6,0.533,0.9,1.383,0.9,2.55v57.7h19.15V459c0-2.3,0.15-4.483,0.45-6.55 c0.3-2.133,0.7-4.167,1.2-6.1c1.233-3.8,2.983-6.917,5.25-9.35c2.233-2.367,4.75-4.117,7.55-5.25c2.8-1.1,5.583-1.65,8.35-1.65 c1.367,0,2.5,0.05,3.4,0.15c0.833,0.1,1.283,0.15,1.35,0.15v-18.95c-0.067,0-0.45-0.05-1.15-0.15 c-0.733-0.1-1.517-0.15-2.35-0.15c-4,0.033-7.633,0.917-10.9,2.65c-3.267,1.767-6.083,4.133-8.45,7.1 c-2.333,3.033-4.1,6.4-5.3,10.1h-0.3l0.15-1.3c0.067-0.867,0.117-2.033,0.15-3.5V421.65 M751,335.95 c-1.367,0.6-2.567,1.35-3.6,2.25c-1,0.967-1.767,2-2.3,3.1H745c-0.667-2.067-1.733-3.617-3.2-4.65c-1.5-1.067-3.4-1.6-5.7-1.6 c-1.567,0.033-3.017,0.367-4.35,1c-1.3,0.6-2.417,1.4-3.35,2.4c-0.9,0.933-1.6,1.9-2.1,2.9h-0.1v-0.4 c0.033-0.267,0.05-0.567,0.05-0.9v-0.85c0-1.1-0.333-1.933-1-2.5c-0.667-0.6-1.667-0.9-3-0.9h-6.95v6.4h2.4 c0.4,0,0.717,0.1,0.95,0.3c0.233,0.233,0.35,0.567,0.35,1v22.6h7.5v-13.35c0-0.667,0.033-1.3,0.1-1.9 c0.1-0.667,0.217-1.3,0.35-1.9c0.333-1.3,0.817-2.467,1.45-3.5c0.667-1.067,1.5-1.9,2.5-2.5c0.967-0.633,2.1-0.967,3.4-1 c1.167,0.033,2.05,0.317,2.65,0.85c0.6,0.533,0.983,1.267,1.15,2.2c0.2,0.933,0.3,1.95,0.3,3.05v18.05h7.55v-13.35 c0-0.667,0.033-1.333,0.1-2c0.067-0.633,0.183-1.25,0.35-1.85c0.3-1.267,0.767-2.433,1.4-3.5c0.667-1.033,1.5-1.85,2.5-2.45 c0.967-0.633,2.083-0.967,3.35-1c1.7,0.067,2.833,0.65,3.4,1.75c0.533,1.133,0.783,2.583,0.75,4.35v14 c0,1.433,0.317,2.467,0.95,3.1c0.667,0.633,1.7,0.95,3.1,0.95H769v-6.35h-2.35c-0.4,0-0.717-0.117-0.95-0.35 c-0.233-0.233-0.35-0.55-0.35-0.95V346.6c0-3.967-0.867-6.883-2.6-8.75c-1.7-1.867-4.133-2.8-7.3-2.8 C753.817,335.083,752.333,335.383,751,335.95 M802.3,359.75h-2.4c-0.433,0-0.75-0.117-0.95-0.35 c-0.233-0.233-0.35-0.55-0.35-0.95v-11.3c0-2.3-0.383-4.35-1.15-6.15c-0.8-1.8-2.15-3.233-4.05-4.3 c-1.933-1.067-4.567-1.617-7.9-1.65c-0.833,0-1.85,0.067-3.05,0.2c-1.233,0.133-2.467,0.4-3.7,0.8 c-1.233,0.433-2.25,1.067-3.05,1.9c-0.833,0.833-1.283,1.95-1.35,3.35v3.2h7.05v-1.55c0.033-0.567,0.283-1,0.75-1.3 c0.467-0.3,1.017-0.5,1.65-0.6c0.6-0.1,1.15-0.15,1.65-0.15c1.933-0.033,3.35,0.417,4.25,1.35c0.9,0.9,1.35,2.433,1.35,4.6v0.25 h-0.95c-1.033,0-2.3,0.033-3.8,0.1c-1.5,0.133-3.05,0.383-4.65,0.75c-1.667,0.367-3.217,0.933-4.65,1.7 c-1.433,0.733-2.617,1.733-3.55,3c-0.867,1.233-1.333,2.8-1.4,4.7c0.033,2.033,0.533,3.75,1.5,5.15s2.233,2.467,3.8,3.2 c1.567,0.767,3.25,1.15,5.05,1.15c1.7-0.067,3.15-0.35,4.35-0.85c1.167-0.533,2.1-1.15,2.8-1.85c0.733-0.7,1.25-1.317,1.55-1.85 c0.333-0.533,0.483-0.8,0.45-0.8h0.15l-0.05,0.35c0,0.233-0.017,0.533-0.05,0.9c0,0.933,0.3,1.717,0.9,2.35s1.6,0.967,3,1h6.8 V359.75 M780.75,354.5c0.633-0.633,1.483-1.117,2.55-1.45c1.033-0.333,2.133-0.55,3.3-0.65c1.167-0.1,2.25-0.15,3.25-0.15h1.3 v0.7c0,1.267-0.3,2.5-0.9,3.7c-0.567,1.233-1.367,2.25-2.4,3.05c-1.033,0.8-2.233,1.217-3.6,1.25 c-1.533-0.067-2.683-0.467-3.45-1.2c-0.733-0.767-1.1-1.683-1.1-2.75C779.7,355.967,780.05,355.133,780.75,354.5z"/><path style="fill:#dedede" d="M191.7,500.6h12.35l9.45-23.7L191.7,500.6 M301.4,345.3c-0.033,0.067-0.067,0.133-0.1,0.2 c-2.433,6.067-4.633,12.45-6.6,19.15c-0.4,1.267-0.85,2.633-1.35,4.1l-0.15,0.15c-0.767,2.667-1.55,5.467-2.35,8.4 c0.2,0,0.4,0.05,0.6,0.15c0.767,0.2,1.45,0.35,2.05,0.45l0.15,0.15c11.5,3.833,16.85,7.717,16.05,11.65v0.1 c-0.2,4.133-6.083,6.75-17.65,7.85c-1.7,0.367-3.617,0.55-5.75,0.55v0.15c-0.4,1.5-0.75,3.083-1.05,4.75 c-0.1,0.467-0.2,1-0.3,1.6c-2.733,15.633-4.45,31.5-5.15,47.6c1.367,1.867,2.833,3.183,4.4,3.95h0.15c1.4,0.7,2.933,1,4.6,0.9 h0.15c2.433,0.2,4.633-0.633,6.6-2.5v-0.15c2.067-2.467,3.733-5.8,5-10h-0.15c0.9-4.033,0.717-7.233-0.55-9.6 c-1.5-2.533-3.083-4-4.75-4.4c-1.567-0.2-3.283,0.633-5.15,2.5c-0.967,1.067-1.45,2.933-1.45,5.6c0,1.467,0.15,2.933,0.45,4.4 c0.1,0.4,0,0.8-0.3,1.2c-0.2,0.3-0.5,0.5-0.9,0.6c-0.4,0.1-0.75,0-1.05-0.3c-0.367-0.2-0.6-0.5-0.7-0.9 c-0.3-1.667-0.45-3.333-0.45-5c0-3.633,0.783-6.183,2.35-7.65c2.733-2.867,5.333-4,7.8-3.4c2.367,0.3,4.583,2.267,6.65,5.9 c1.767,2.733,2.1,6.617,1,11.65v0.1c-1.367,4.833-3.233,8.617-5.6,11.35h-0.15c-2.533,2.567-5.417,3.75-8.65,3.55h-0.15 c-2.167,0.1-4.133-0.3-5.9-1.2c-1.2-0.467-2.333-1.25-3.4-2.35c-0.1,3.167-0.15,6.317-0.15,9.45h11.8c0.4,0,0.733,0.15,1,0.45 c0.3,0.2,0.45,0.483,0.45,0.85c0,0.4-0.1,0.75-0.3,1.05l-9.85,12.8l4.95,6l40.55-70.2c2.267-3.933,3.35-8.117,3.25-12.55 c0.1-4.6-0.933-8.767-3.1-12.5L301.4,345.3 M231.9,318.95c0.833-3.733,1.75-7.383,2.75-10.95l-51.5-0.1 c-4.533,0.1-8.717,1.183-12.55,3.25c-3.933,2.167-6.967,5.2-9.1,9.1l-41.15,71.35c-2.433,3.833-3.6,8-3.5,12.5 c-0.1,4.433,1.067,8.617,3.5,12.55l41,71.3c2.233,3.833,5.217,6.917,8.95,9.25c1.233,0.733,2.5,1.35,3.8,1.85l-19.1-54.7 c-0.1-0.1-0.15-0.2-0.15-0.3l-4.55-13.55c-0.2-0.4-0.2-0.75,0-1.05c2.067-4.7,5.85-6.167,11.35-4.4c0.2,0,0.383,0.1,0.55,0.3 c0.2,0.2,0.35,0.383,0.45,0.55l4.3,13.15c0,0.1,0.05,0.2,0.15,0.3L188,500.2l25.95-28.45l-4.6-8.85 c-0.167-0.4-0.167-0.75,0-1.05c0-0.367,0.2-0.65,0.6-0.85c0.2-0.2,0.5-0.3,0.9-0.3l10.6,1.15c-0.6-6.867-1.033-13.683-1.3-20.45 h-0.45c-0.1,0-0.2,0-0.3,0c-0.1-0.1-0.2-0.15-0.3-0.15c-0.1,0-0.2,0-0.3,0c-0.7-0.2-1.333-0.3-1.9-0.3c-0.2,0-0.35,0-0.45,0 c-3.733-0.1-6.633,1.033-8.7,3.4v0.15c-0.8,0.967-1.533,2.183-2.2,3.65c-0.3,1-0.9,2.433-1.8,4.3 c-1.767,3.733-3.817,6.333-6.15,7.8h-0.15c-1.867,0.8-3.633,1.25-5.3,1.35c-3.367,0.267-6.117-0.867-8.25-3.4 c-2.267-2.667-3.95-6.3-5.05-10.9c-1.267-5.133-1.117-9.067,0.45-11.8c1.867-3.733,3.933-5.8,6.2-6.2 c2.267-0.567,4.667,0.517,7.2,3.25l0.15,0.15c1.5,1.167,2.25,3.567,2.25,7.2c0,1.767-0.25,3.5-0.75,5.2 c-0.2,0.367-0.45,0.65-0.75,0.85c-0.4,0.2-0.783,0.25-1.15,0.15c-0.4-0.2-0.7-0.45-0.9-0.75c-0.2-0.367-0.2-0.75,0-1.15 c0.4-1.367,0.6-2.8,0.6-4.3c0-2.533-0.45-4.25-1.35-5.15l-0.15-0.15c-1.667-1.867-3.133-2.65-4.4-2.35 c-1.467,0.4-2.9,1.917-4.3,4.55c-1.167,2.267-1.267,5.517-0.3,9.75c1,4.133,2.483,7.367,4.45,9.7 c1.467,1.767,3.383,2.567,5.75,2.4H192c1.267-0.1,2.633-0.4,4.1-0.9c0-0.1,0.05-0.15,0.15-0.15 c1.867-1.167,3.483-3.283,4.85-6.35c0.9-1.867,1.5-3.283,1.8-4.25v-0.15c0.767-1.667,1.6-3.1,2.5-4.3h0.15 c2.533-3.133,6.167-4.65,10.9-4.55c0.1,0,0.25,0,0.45,0c0.667,0,1.45,0.1,2.35,0.3c0.2,0,0.45,0.05,0.75,0.15 c-0.1-1.867-0.15-3.683-0.15-5.45c-1.867-0.7-3.5-2.033-4.9-4c-2.133-2.833-3.117-6.117-2.95-9.85c0-0.7,0.05-1.333,0.15-1.9 l-4.4-1.5l1.9-5.6l4.45,1.5c0.467-0.9,1.1-1.733,1.9-2.5c1.167-1.6,2.5-2.683,4-3.25c0.1-1.1,0.15-2.133,0.15-3.1 c0.167-3.633,0.4-7.217,0.7-10.75c-1.267-0.3-2.383-0.55-3.35-0.75l-0.9-0.3c-0.9-0.2-1.683-0.4-2.35-0.6 c-11.5-3.433-16.9-7.267-16.2-11.5c0.167-4,6.15-6.75,17.95-8.25h0.15c1.667,0,3.283-0.133,4.85-0.4c0.1-0.1,0.2-0.15,0.3-0.15 h0.3c0.3,0,0.65,0,1.05,0c0.2-2.067,0.433-4.083,0.7-6.05c0.4-2.767,0.8-5.517,1.2-8.25c1.467-9.633,3.233-19.017,5.3-28.15 c0-0.2,0.05-0.35,0.15-0.45l2.05-8.25H231.9 M170.75,360.5l-8.55,0.15l7.4-6.2l-2.95-14l10.75,8.25l10.3-8.65l-5,11.9l10.6,7.8 L179,360.2l-5.45,12.4L170.75,360.5 M138.5,391.3l-2.05-6.05l4.85,3.7l6.5-5.3l-2.1,8.25l7.4,5.15h-8.7l-1.6,5.45l-1.95-5.45 h-10L138.5,391.3 M184.9,397.2l-3.95,7.35l6.15,5.15h-8.95l-6.05,11.05V409.7h-9.9l9.9-5.45v-7.2l5.15,4.55L184.9,397.2z"/><path style="fill:#fff" d="M164.45,440.95c-1.5-0.7-2.733-0.85-3.7-0.45l21.65,60.1c0.2,0,0.4,0,0.6,0h2.05L164.45,440.95 M260.35,472.05c0.3,0.1,0.55,0.3,0.75,0.6c0.2,0.167,0.3,0.45,0.3,0.85c-0.3,7.167-0.4,14.2-0.3,21.1 c0,0.267-0.05,0.55-0.15,0.85c-0.2,0.2-0.45,0.4-0.75,0.6c-0.3,0.1-0.6,0.1-0.9,0l-15.15-3.4v7.95h20.9 c4.633,0,8.85-1.133,12.65-3.4c3.233-1.9,5.95-4.35,8.15-7.35l-6.35-7.65c-0.2-0.3-0.3-0.65-0.3-1.05c0-0.267,0.1-0.55,0.3-0.85 l8.85-11.35h-10.3c-0.4,0-0.75-0.15-1.05-0.45s-0.45-0.65-0.45-1.05c0-4.8,0.1-9.6,0.3-14.4c-0.3-0.4-0.55-0.85-0.75-1.35h-0.15 c-0.867-1.867-1.45-3.233-1.75-4.1c-0.1,0-0.15-0.05-0.15-0.15c-0.867-1.4-1.7-2.633-2.5-3.7c-5.1-4.7-14.383-3.467-27.85,3.7 v29.75l15.75-5.15C259.75,471.85,260.05,471.85,260.35,472.05 M180.95,404.55l3.95-7.35l-7.65,4.4l-5.15-4.55v7.2l-9.9,5.45h9.9 v11.05l6.05-11.05h8.95L180.95,404.55 M136.45,385.25l2.05,6.05l-7.65,5.75h10l1.95,5.45l1.6-5.45h8.7l-7.4-5.15l2.1-8.25 l-6.5,5.3L136.45,385.25 M162.2,360.65l8.55-0.15l2.8,12.1l5.45-12.4l14.3-0.45l-10.6-7.8l5-11.9l-10.3,8.65l-10.75-8.25 l2.95,14L162.2,360.65 M227.95,474.25h-0.6v19.9l14.3-4.45c0.1-0.1,0.2-0.15,0.3-0.15c0.267-0.267,0.6-0.35,1-0.25l15.2,3.5 c-0.1-5.7,0-11.483,0.3-17.35l-14.9,5c-0.3,0.1-0.6,0.1-0.9,0c-0.367,0-0.7-0.05-1-0.15L227.95,474.25 M160,427.55 c-3.133-0.8-5.383,0.083-6.75,2.65l3.4,9.85c0.767-1.067,1.733-1.85,2.9-2.35h0.15c1-0.5,2.183-0.6,3.55-0.3L160,427.55 M230.3,410.9c-1.667-2.067-3.683-3.1-6.05-3.1c-1.567,0-3.033,0.533-4.4,1.6c-0.6,0.4-1.15,0.95-1.65,1.65 c-1.167,1.267-1.95,2.683-2.35,4.25c-0.1,0-0.15,0.05-0.15,0.15c-0.5,1.2-0.75,2.433-0.75,3.7v0.15 c-0.167,3.033,0.633,5.683,2.4,7.95c0.667,0.967,1.5,1.75,2.5,2.35c0.967,0.6,2.033,0.9,3.2,0.9c2.467,0,4.683-1.083,6.65-3.25 h-0.15c1.867-2.367,2.9-5.067,3.1-8.1C232.75,415.917,231.967,413.167,230.3,410.9 M234.55,447.45c0.4,0.2,0.8,0.25,1.2,0.15 c0.3-0.2,0.6-0.45,0.9-0.75c0.167-0.4,0.217-0.75,0.15-1.05c-0.2-0.4-0.45-0.683-0.75-0.85c-2.367-1.4-4.583-2.533-6.65-3.4 h0.15c-1.467-0.7-2.833-1.25-4.1-1.65h0.15c-0.533-0.233-0.983-0.367-1.35-0.4c-0.6-0.3-1.183-0.5-1.75-0.6l0.15,0.15 c-0.4-0.1-0.8-0.2-1.2-0.3c-0.5-0.2-0.9-0.3-1.2-0.3h-0.1l0.1,2.95c0.1,0,0.2,0.05,0.3,0.15h0.15c0.4,0.1,0.8,0.2,1.2,0.3 c0.4,0.1,0.833,0.25,1.3,0.45h0.15c0.3,0.067,0.7,0.2,1.2,0.4c1.067,0.3,2.3,0.8,3.7,1.5 C230.283,445.067,232.383,446.15,234.55,447.45 M234,399.7c0.167,0.6,0.5,0.983,1,1.15c0.4,0.1,0.85,0.017,1.35-0.25 c0.367-0.5,0.6-0.9,0.7-1.2c0.3-0.6,0.25-1.083-0.15-1.45c-1.867-3.367-4.217-5.15-7.05-5.35c-0.2,0-0.35,0-0.45,0h-0.15 c-1.767,0-3.733,0.5-5.9,1.5c-0.367,0.2-0.6,0.5-0.7,0.9c-0.2,0.567-0.2,1.1,0,1.6c0.2,0.4,0.583,0.7,1.15,0.9 c0.4,0.1,0.9,0.05,1.5-0.15c1.367-0.8,2.683-1.2,3.95-1.2h0.3C231.017,396.45,232.5,397.633,234,399.7 M284.8,391 c-0.6-0.2-1.183-0.4-1.75-0.6c-9.867-1.917-19.733-3.833-29.6-5.75c-0.3,0-0.55,0-0.75,0c-0.1,0-0.2,0-0.3,0h-0.15 c-0.4,0-0.8-0.05-1.2-0.15c-0.567,0-1.15,0-1.75,0l-8.7,45.25v0.3l-3.4,15.9c1.6,0.1,2.933-0.1,4-0.6 c15.7-8.733,26.55-9.9,32.55-3.5c0.1,0,0.15,0.05,0.15,0.15c0.9,1.167,1.833,2.533,2.8,4.1v0.15c0.1,0.3,0.25,0.6,0.45,0.9 c0.767-14.433,2.383-28.733,4.85-42.9c0.1-0.567,0.2-1.1,0.3-1.6c0.3-1.667,0.65-3.233,1.05-4.7c0-0.4,0.05-0.75,0.15-1.05 c0-0.2,0-0.35,0-0.45C283.867,394.583,284.3,392.767,284.8,391 M254.4,397.15c0.133-0.4,0.383-0.683,0.75-0.85 c5.467-2.633,9.9-1.75,13.3,2.65c0.233,0.3,0.333,0.667,0.3,1.1c-0.067,0.4-0.25,0.733-0.55,1c-0.333,0.233-0.7,0.333-1.1,0.3 c-0.433-0.067-0.767-0.25-1-0.55c-2.5-3.1-5.717-3.7-9.65-1.8c-0.367,0.2-0.75,0.233-1.15,0.1c-0.4-0.167-0.683-0.433-0.85-0.8 C254.25,397.933,254.233,397.55,254.4,397.15 M260.1,410.95c-0.533,4.933-2.8,10.9-6.8,17.9h8.8c0.4,0,0.75,0.15,1.05,0.45 s0.45,0.65,0.45,1.05c0,0.4-0.15,0.75-0.45,1.05s-0.65,0.45-1.05,0.45h-11.45c-0.367,0-0.683-0.117-0.95-0.35 c-0.3-0.233-0.467-0.533-0.5-0.9c-0.067-0.367,0-0.7,0.2-1c4.533-7.567,7.1-13.9,7.7-19c0.067-0.433,0.267-0.767,0.6-1 c0.3-0.267,0.667-0.383,1.1-0.35c0.4,0.067,0.733,0.267,1,0.6C260.033,410.15,260.133,410.517,260.1,410.95 M254.15,370.8 c0.3,0,0.65,0,1.05,0c11.6,1.2,21.917,2.967,30.95,5.3c0.1,0,0.2,0,0.3,0c0.05,0,0.1,0,0.15,0c0.467,0.1,0.95,0.2,1.45,0.3 c0.7-2.633,1.433-5.183,2.2-7.65c-1.867-1.167-3.583-2.25-5.15-3.25c-2.167-1.167-4.333-2.283-6.5-3.35 c-3.533-1.7-7.117-3.033-10.75-4c-12.667-3.733-26.167-3.983-40.5-0.75c-0.4,2.367-0.75,4.733-1.05,7.1 c-0.3,1.867-0.533,3.733-0.7,5.6c1.567-0.1,3.183-0.15,4.85-0.15C238.35,370.233,246.25,370.517,254.15,370.8 M302.05,298.9 h-0.15c-3.733-2.233-7.517-4.1-11.35-5.6h-0.15c-3.033,6.933-5.883,13.95-8.55,21.05c-5.067,13.433-9.433,27.1-13.1,41 c3.733,0.967,7.367,2.3,10.9,4c3.267-11.033,6.933-21.933,11-32.7C294.15,317.317,297.95,308.067,302.05,298.9z"/></g><g><path id="Layer0_0_1_STROKES" d="M178.7,500.25 c1,0.167,2.05,0.283,3.15,0.35" style="fill:none;stroke:#595959;stroke-linecap:round;stroke-linejoin:round"/></g></g></g></switch></svg>